<?xml version="1.0" encoding="UTF-8"?>
<svg width="24px" height="36px" viewBox="0 0 24 36" version="1.1" xmlns="http://www.w3.org/2000/svg" xmlns:xlink="http://www.w3.org/1999/xlink">
    <!-- Generator: Sketch 58 (84663) - https://sketch.com -->
    <title>users</title>
    <desc>Created with Sketch.</desc>
    <g id="users" stroke="none" stroke-width="1" fill="none" fill-rule="evenodd">
        <path d="M12,0 C5.37255,0 0,5.37255 0,12 C0,14.1315 0.5724,16.125 1.5468,17.859 C1.70865,18.147 1.8783,18.4305 2.0625,18.7035 L12,36 L21.9375,18.7035 C22.0905,18.477 22.2225,18.237 22.359,18 L22.4535,17.859 C23.427,16.125 24,14.1315 24,12 C24,5.37255 18.627,0 12,0 L12,0 Z M12,6 C15.3135,6 18,8.68635 18,12 C18,15.3135 15.3135,18 12,18 C8.68635,18 6,15.3135 6,12 C6,8.68635 8.68635,6 12,6 Z" id="Shape-Copy-3" fill="#EE9100" fill-rule="nonzero"></path>
    </g>
</svg>