<?xml version="1.0" encoding="UTF-8"?>
<svg width="481px" height="94px" viewBox="0 0 481 94" version="1.1" xmlns="http://www.w3.org/2000/svg" xmlns:xlink="http://www.w3.org/1999/xlink">
    <!-- Generator: Sketch 58 (84663) - https://sketch.com -->
    <title>BigTWINE</title>
    <desc>Created with Sketch.</desc>
    <g id="Symbols" stroke="none" stroke-width="1" fill="none" fill-rule="evenodd">
        <g id="BigTWINE-Logo" fill="#FFFFFF" fill-rule="nonzero">
            <path d="M30.6640625,72.8027344 L8.7890625,72.8027344 C5.63149463,72.8027344 3.3772854,72.0947336 2.02636719,70.6787109 C0.675448975,69.2626882 0,67.008479 0,63.9160156 L0,10.1074219 C0,6.949854 0.691724854,4.6793689 2.07519531,3.29589844 C3.45866577,1.91242798 5.69659912,1.22070312 8.7890625,1.22070312 L31.9824219,1.22070312 C35.4004077,1.22070312 38.3626177,1.43228955 40.8691406,1.85546875 C43.3756636,2.27864795 45.6217349,3.09244189 47.6074219,4.296875 C49.3001387,5.30599463 50.7975195,6.58365112 52.0996094,8.12988281 C53.4016992,9.6761145 54.3945278,11.3850818 55.078125,13.2568359 C55.7617222,15.1285901 56.1035156,17.1061094 56.1035156,19.1894531 C56.1035156,26.3509473 52.5228223,31.5917803 45.3613281,34.9121094 C54.7689272,37.906916 59.4726562,43.7336807 59.4726562,52.3925781 C59.4726562,56.3965044 58.4472759,60.0016116 56.3964844,63.2080078 C54.3456929,66.4144041 51.5787935,68.7825444 48.0957031,70.3125 C45.9147026,71.2239629 43.4082173,71.8668601 40.5761719,72.2412109 C37.7441265,72.6155618 34.440123,72.8027344 30.6640625,72.8027344 Z M29.5898438,41.015625 L14.5019531,41.015625 L14.5019531,61.9140625 L30.078125,61.9140625 C39.8763511,61.9140625 44.7753906,58.3821968 44.7753906,51.3183594 C44.7753906,47.7050601 43.5058721,45.0846436 40.9667969,43.4570312 C38.4277217,41.8294189 34.6354419,41.015625 29.5898438,41.015625 Z M14.5019531,12.109375 L14.5019531,30.6152344 L27.7832031,30.6152344 C31.3965024,30.6152344 34.1878157,30.2734409 36.1572266,29.5898438 C38.0229842,28.9422254 39.4723956,27.7395231 40.5054989,25.9817036 L40.6738281,25.6835938 C41.4876343,24.3163994 41.8945312,22.7864668 41.8945312,21.09375 C41.8945312,17.4804507 40.6087368,15.0797585 38.0371094,13.8916016 C35.4654819,12.7034446 31.5429951,12.109375 26.2695312,12.109375 L14.5019531,12.109375 Z M84.4238281,27.3925781 L84.4238281,65.9179688 C84.4238281,68.5872529 83.7890688,70.6054619 82.5195312,71.9726562 C81.2499937,73.3398506 79.6386816,74.0234375 77.6855469,74.0234375 C75.7324121,74.0234375 74.1455139,73.3235747 72.9248047,71.9238281 C71.7040955,70.5240815 71.09375,68.5221484 71.09375,65.9179688 L71.09375,27.7832031 C71.09375,25.1464712 71.7040955,23.160814 72.9248047,21.8261719 C74.1455139,20.4915298 75.7324121,19.8242188 77.6855469,19.8242188 C79.6386816,19.8242188 81.2499937,20.4915298 82.5195312,21.8261719 C83.7890688,23.160814 84.4238281,25.0162642 84.4238281,27.3925781 Z M77.8320312,13.6230469 C75.9765532,13.6230469 74.389655,13.0533911 73.0712891,11.9140625 C71.7529231,10.7747339 71.09375,9.16342187 71.09375,7.08007812 C71.09375,5.19204785 71.769199,3.63770142 73.1201172,2.41699219 C74.4710354,1.19628296 76.0416577,0.5859375 77.8320312,0.5859375 C79.5573003,0.5859375 81.0872329,1.13931738 82.421875,2.24609375 C83.7565171,3.35287012 84.4238281,4.96418213 84.4238281,7.08007812 C84.4238281,9.13086963 83.772793,10.7340437 82.4707031,11.8896484 C81.1686133,13.0452532 79.6224048,13.6230469 77.8320312,13.6230469 Z M147.216797,29.5898438 L147.216797,68.3105469 C147.216797,72.7376523 146.744796,76.546208 145.800781,79.7363281 C144.856766,82.9264482 143.343109,85.5631406 141.259766,87.6464844 C139.176422,89.7298281 136.450212,91.2760366 133.081055,92.2851562 C129.711897,93.2942759 125.520858,93.7988281 120.507812,93.7988281 C115.917946,93.7988281 111.816424,93.1559309 108.203125,91.8701172 C104.589826,90.5843035 101.80665,88.9241638 99.8535156,86.8896484 C97.9003809,84.8551331 96.9238281,82.7636826 96.9238281,80.6152344 C96.9238281,78.9876221 97.477208,77.6611379 98.5839844,76.6357422 C99.6907607,75.6103464 101.025383,75.0976562 102.587891,75.0976562 C104.541025,75.0976562 106.249993,75.9602778 107.714844,77.6855469 C108.430993,78.5644575 109.171546,79.4514929 109.936523,80.3466797 C110.701501,81.2418665 111.547847,82.0068328 112.475586,82.6416016 C113.403325,83.2763704 114.518223,83.7483708 115.820312,84.0576172 C117.122402,84.3668635 118.619783,84.5214844 120.3125,84.5214844 C123.763038,84.5214844 126.44042,84.0413459 128.344727,83.0810547 C130.249033,82.1207634 131.583655,80.7780034 132.348633,79.0527344 C133.113611,77.3274653 133.561197,75.4801531 133.691406,73.5107422 L133.736875,72.7500762 C133.844584,70.7643459 133.927083,67.8522327 133.984375,64.0136719 C131.933583,66.8782695 129.565443,69.0592373 126.879883,70.5566406 C124.194323,72.0540439 120.996112,72.8027344 117.285156,72.8027344 C112.825499,72.8027344 108.927426,71.6634229 105.59082,69.3847656 C102.254215,67.1061084 99.6907642,63.9160361 97.9003906,59.8144531 C96.1100171,55.7128701 95.2148438,50.9765894 95.2148438,45.6054688 C95.2148438,41.6015425 95.7600857,37.9882974 96.8505859,34.765625 C97.9410862,31.5429526 99.4954326,28.8248809 101.513672,26.6113281 C103.531911,24.3977754 105.859362,22.7294978 108.496094,21.6064453 C111.132826,20.4833928 114.029932,19.921875 117.1875,19.921875 C120.963561,19.921875 124.235012,20.6461516 127.001953,22.0947266 C129.768894,23.5433015 132.340483,25.8137866 134.716797,28.90625 L134.716797,27.0996094 C134.716797,24.7883999 135.286453,22.9980532 136.425781,21.7285156 C137.56511,20.458978 139.029939,19.8242188 140.820312,19.8242188 C143.39194,19.8242188 145.100907,20.6624265 145.947266,22.3388672 C146.793624,24.0153079 147.216797,26.4322759 147.216797,29.5898438 Z M108.59375,46.484375 C108.59375,51.8880479 109.773751,55.9732935 112.133789,58.7402344 C114.493827,61.5071753 117.545554,62.890625 121.289062,62.890625 C123.502615,62.890625 125.594066,62.2965554 127.563477,61.1083984 C129.532887,59.9202415 131.136062,58.1298948 132.373047,55.7373047 C133.610032,53.3447146 134.228516,50.4394702 134.228516,47.0214844 C134.228516,41.5852593 133.032239,37.3535308 130.639648,34.3261719 C128.247058,31.298813 125.097676,29.7851562 121.191406,29.7851562 C117.382793,29.7851562 114.331066,31.2337095 112.036133,34.1308594 C109.741199,37.0280093 108.59375,41.1458066 108.59375,46.484375 Z M208.105469,13.1835938 L192.285156,13.1835938 L192.285156,65.1855469 C192.285156,68.1803535 191.617845,70.402011 190.283203,71.8505859 C188.948561,73.2991609 187.223318,74.0234375 185.107422,74.0234375 C182.958974,74.0234375 181.209317,73.2910229 179.858398,71.8261719 C178.50748,70.3613208 177.832031,68.1478013 177.832031,65.1855469 L177.832031,13.1835938 L162.011719,13.1835938 C159.537748,13.1835938 157.698574,12.6383518 156.494141,11.5478516 C155.289708,10.4573513 154.6875,9.01693604 154.6875,7.2265625 C154.6875,5.37108447 155.314121,3.90625537 156.567383,2.83203125 C157.820644,1.75780713 159.635405,1.22070312 162.011719,1.22070312 L208.105469,1.22070312 C210.611992,1.22070312 212.47558,1.77408301 213.696289,2.88085938 C214.916998,3.98763574 215.527344,5.43618896 215.527344,7.2265625 C215.527344,9.01693604 214.90886,10.4573513 213.671875,11.5478516 C212.43489,12.6383518 210.579439,13.1835938 208.105469,13.1835938 Z M274.804688,61.5234375 L263.232422,18.6035156 L251.513672,61.5234375 L251.035074,63.2078114 C250.345023,65.5975682 249.780276,67.3717094 249.34082,68.5302734 C248.803708,69.9462961 247.867845,71.2158147 246.533203,72.3388672 C245.198561,73.4619197 243.42449,74.0234375 241.210938,74.0234375 C239.420564,74.0234375 237.947597,73.689782 236.791992,73.0224609 C235.636387,72.3551399 234.700524,71.4111389 233.984375,70.1904297 C233.268226,68.9697205 232.682294,67.5211672 232.226562,65.8447266 L231.66753,63.7565756 C231.43103,62.8584059 231.210473,62.0000971 231.005859,61.1816406 L219.091797,12.9882812 C218.375647,10.1887881 218.017578,8.05664795 218.017578,6.59179688 C218.017578,4.73631885 218.668613,3.17383447 219.970703,1.90429687 C221.272793,0.634759277 222.884105,0 224.804688,0 C227.441419,0 229.21549,0.846345703 230.126953,2.5390625 C231.038416,4.2317793 231.835934,6.68943701 232.519531,9.91210938 L241.894531,51.7089844 L252.392578,12.5976563 L252.649982,11.6259126 C253.328353,9.10532986 253.942416,7.15061458 254.492188,5.76171875 C255.11068,4.19921094 256.119785,2.84831299 257.519531,1.70898438 C258.919278,0.569655762 260.823556,0 263.232422,0 C265.67384,0 267.56998,0.59406958 268.920898,1.78222656 C270.271817,2.97038354 271.20768,4.26431592 271.728516,5.6640625 C272.249352,7.06380908 272.949214,9.37498389 273.828125,12.5976563 L284.423828,51.7089844 L293.798828,9.91210938 C294.25456,7.73110889 294.68587,6.0221416 295.092773,4.78515625 C295.499677,3.5481709 296.199539,2.44141113 297.192383,1.46484375 C298.185226,0.488276367 299.625642,0 301.513672,0 C303.401702,0 305.004876,0.626621338 306.323242,1.87988281 C307.641608,3.13314429 308.300781,4.7037666 308.300781,6.59179688 C308.300781,7.92643896 307.942712,10.0585791 307.226562,12.9882812 L295.3125,61.1816406 C294.498694,64.4368652 293.823245,66.8212815 293.286133,68.3349609 C292.749021,69.8486404 291.837572,71.1751245 290.551758,72.3144531 C289.265944,73.4537817 287.451184,74.0234375 285.107422,74.0234375 C282.893869,74.0234375 281.119798,73.4700576 279.785156,72.3632812 C278.450514,71.2565049 277.522789,70.0114001 277.001953,68.6279297 L276.861283,68.2446877 C276.352141,66.8251627 275.666614,64.5847639 274.804688,61.5234375 Z M318.505859,65.1855469 L318.505859,8.7890625 C318.505859,5.85936035 319.17317,3.6621167 320.507812,2.19726562 C321.842455,0.732414551 323.567698,0 325.683594,0 C327.864594,0 329.630527,0.724276611 330.981445,2.17285156 C332.332364,3.62142651 333.007812,5.82680811 333.007812,8.7890625 L333.007812,65.1855469 C333.007812,68.1478013 332.332364,70.3613208 330.981445,71.8261719 C329.630527,73.2910229 327.864594,74.0234375 325.683594,74.0234375 C323.60025,74.0234375 321.883145,73.282885 320.532227,71.8017578 C319.181308,70.3206306 318.505859,68.115249 318.505859,65.1855469 Z M368.115234,8.69140625 L395.996094,50.8789062 L395.996094,8.30078125 C395.996094,5.53384033 396.590163,3.45866577 397.77832,2.07519531 C398.966477,0.691724854 400.569651,0 402.587891,0 C404.671234,0 406.315098,0.691724854 407.519531,2.07519531 C408.723964,3.45866577 409.326172,5.53384033 409.326172,8.30078125 L409.326172,64.5996094 C409.326172,70.8821929 406.722031,74.0234375 401.513672,74.0234375 C400.211582,74.0234375 399.039719,73.8362649 397.998047,73.4619141 C396.956375,73.0875632 395.979822,72.4934937 395.068359,71.6796875 C394.156896,70.8658813 393.310551,69.9137424 392.529297,68.8232422 C391.748043,67.7327419 390.966801,66.6178442 390.185547,65.4785156 L362.988281,23.7792969 L362.988281,65.7226562 C362.988281,68.4570449 362.353522,70.5240815 361.083984,71.9238281 C359.814447,73.3235747 358.186859,74.0234375 356.201172,74.0234375 C354.15038,74.0234375 352.506517,73.3154368 351.269531,71.8994141 C350.032546,70.4833914 349.414062,68.4244927 349.414062,65.7226562 L349.414062,10.4980469 C349.414062,8.15428516 349.674477,6.31511084 350.195312,4.98046875 C350.813805,3.51561768 351.839186,2.31934058 353.271484,1.39160156 C354.703783,0.463862549 356.249992,0 357.910156,0 C359.212246,0 360.327144,0.211586426 361.254883,0.634765625 C362.182622,1.05794482 362.996416,1.62760059 363.696289,2.34375 C364.396162,3.05989941 365.112301,3.98762451 365.844727,5.12695312 L367.189452,7.23046772 C367.494139,7.70963336 367.802733,8.19661211 368.115234,8.69140625 Z M472.363281,12.4023438 L439.697266,12.4023438 L439.697266,29.9804688 L469.775391,29.9804688 C471.988943,29.9804688 473.640945,30.4768831 474.731445,31.4697266 C475.821946,32.4625701 476.367188,33.7727783 476.367188,35.4003906 C476.367188,37.0280029 475.830083,38.3544871 474.755859,39.3798828 C473.681635,40.4052786 472.021496,40.9179688 469.775391,40.9179688 L439.697266,40.9179688 L439.697266,61.2792969 L473.486328,61.2792969 C475.764985,61.2792969 477.482091,61.8082629 478.637695,62.8662109 C479.7933,63.9241589 480.371094,65.3320225 480.371094,67.0898438 C480.371094,68.7825605 479.7933,70.1578723 478.637695,71.2158203 C477.482091,72.2737683 475.764985,72.8027344 473.486328,72.8027344 L434.082031,72.8027344 C430.924463,72.8027344 428.653978,72.1028716 427.270508,70.703125 C425.887037,69.3033784 425.195312,67.0410313 425.195312,63.9160156 L425.195312,10.1074219 C425.195312,8.02407813 425.504554,6.32324878 426.123047,5.00488281 C426.74154,3.68651685 427.709954,2.72623999 429.02832,2.12402344 C430.346686,1.52180688 432.03124,1.22070312 434.082031,1.22070312 L472.363281,1.22070312 C474.674491,1.22070312 476.391596,1.73339331 477.514648,2.75878906 C478.637701,3.78418481 479.199219,5.12694482 479.199219,6.78710937 C479.199219,8.47982617 478.637701,9.83886206 477.514648,10.8642578 C476.391596,11.8896536 474.674491,12.4023438 472.363281,12.4023438 Z" id="BigTWINE"></path>
        </g>
    </g>
</svg>